<?xml version="1.0" encoding="utf-8"?>
<!-- Generator: Adobe Illustrator 26.4.1, SVG Export Plug-In . SVG Version: 6.00 Build 0)  -->
<svg version="1.1" id="Layer_1" xmlns="http://www.w3.org/2000/svg" xmlns:xlink="http://www.w3.org/1999/xlink" x="0px" y="0px"
	 viewBox="0 0 12 106" style="enable-background:new 0 0 12 106;" xml:space="preserve">
<style type="text/css">
	.st0{fill:url(#SVGID_1_);}
	.st1{fill:#FFFFFF;stroke:#000000;stroke-width:2;}
</style>
<linearGradient id="SVGID_1_" gradientUnits="userSpaceOnUse" x1="5.5" y1="122" x2="5.5" y2="8.5" gradientTransform="matrix(1 0 0 -1 0 108)">
	<stop  offset="0" style="stop-color:#FFFFFF"/>
	<stop  offset="1" style="stop-color:#E5E5E5"/>
</linearGradient>
<path class="st0" d="M6.5,1.5c0-0.6-0.4-1-1-1s-1,0.4-1,1H6.5z M5.5,94.2c-2.9,0-5.3,2.4-5.3,5.3c0,2.9,2.4,5.3,5.3,5.3
	s5.3-2.4,5.3-5.3C10.8,96.6,8.4,94.2,5.5,94.2z M4.5,4.6c0,0.6,0.4,1,1,1s1-0.4,1-1H4.5z M6.5,10.7c0-0.6-0.4-1-1-1s-1,0.4-1,1H6.5z
	 M4.5,16.8c0,0.6,0.4,1,1,1s1-0.4,1-1H4.5z M6.5,22.9c0-0.6-0.4-1-1-1s-1,0.4-1,1H6.5z M4.5,29.1c0,0.6,0.4,1,1,1s1-0.4,1-1H4.5z
	 M6.5,35.2c0-0.6-0.4-1-1-1s-1,0.4-1,1H6.5z M4.5,41.3c0,0.6,0.4,1,1,1s1-0.4,1-1H4.5z M6.5,47.4c0-0.6-0.4-1-1-1s-1,0.4-1,1H6.5z
	 M4.5,53.6c0,0.6,0.4,1,1,1s1-0.4,1-1H4.5z M6.5,59.7c0-0.6-0.4-1-1-1s-1,0.4-1,1H6.5z M4.5,65.8c0,0.6,0.4,1,1,1s1-0.4,1-1H4.5z
	 M6.5,71.9c0-0.6-0.4-1-1-1s-1,0.4-1,1H6.5z M4.5,78.1c0,0.6,0.4,1,1,1s1-0.4,1-1H4.5z M6.5,84.2c0-0.6-0.4-1-1-1s-1,0.4-1,1H6.5z
	 M4.5,90.3c0,0.6,0.4,1,1,1s1-0.4,1-1H4.5z M6.5,96.4c0-0.6-0.4-1-1-1s-1,0.4-1,1H6.5z M4.5,1.5v3.1h2V1.5H4.5z M4.5,10.7v6.1h2
	v-6.1H4.5z M4.5,22.9v6.1h2v-6.1H4.5z M4.5,35.2v6.1h2v-6.1H4.5z M4.5,47.4v6.1h2v-6.1H4.5z M4.5,59.7v6.1h2v-6.1H4.5z M4.5,71.9
	v6.1h2v-6.1H4.5z M4.5,84.2v6.1h2v-6.1H4.5z M4.5,96.4v3.1h2v-3.1H4.5z"/>
<path class="st1" d="M6,95L6,95c2.8,0,5,2.2,5,5l0,0c0,2.8-2.2,5-5,5l0,0c-2.8,0-5-2.2-5-5l0,0C1,97.2,3.2,95,6,95z"/>
</svg>
