<?xml version="1.0" encoding="utf-8"?>
<!-- Generator: Adobe Illustrator 26.4.1, SVG Export Plug-In . SVG Version: 6.00 Build 0)  -->
<svg version="1.1" id="Layer_1" xmlns="http://www.w3.org/2000/svg" xmlns:xlink="http://www.w3.org/1999/xlink" x="0px" y="0px"
	 viewBox="0 0 712 12" style="enable-background:new 0 0 712 12;" xml:space="preserve">
<style type="text/css">
	.st0{fill:#E5E5E5;}
	.st1{fill:#FFFFFF;stroke:#000000;stroke-width:2;}
</style>
<path class="st0" d="M713,7c0.6,0,1-0.4,1-1s-0.4-1-1-1V7z M6,11.3c2.9,0,5.3-2.4,5.3-5.3S8.9,0.7,6,0.7S0.7,3.1,0.7,6
	S3.1,11.3,6,11.3z M9,7c0.6,0,1-0.4,1-1S9.5,5,9,5V7z M15,5c-0.6,0-1,0.4-1,1s0.4,1,1,1V5z M21,7c0.6,0,1-0.4,1-1s-0.4-1-1-1V7z
	 M27,5c-0.6,0-1,0.4-1,1s0.4,1,1,1V5z M33,7c0.6,0,1-0.4,1-1s-0.4-1-1-1V7z M39,5c-0.6,0-1,0.4-1,1s0.4,1,1,1V5z M44.9,7
	c0.6,0,1-0.4,1-1s-0.4-1-1-1V7z M50.9,5c-0.6,0-1,0.4-1,1s0.4,1,1,1V5z M56.9,7c0.6,0,1-0.4,1-1s-0.4-1-1-1V7z M62.9,5
	c-0.6,0-1,0.4-1,1s0.4,1,1,1V5z M68.9,7c0.6,0,1-0.4,1-1s-0.4-1-1-1V7z M74.9,5c-0.6,0-1,0.4-1,1s0.4,1,1,1V5z M80.9,7
	c0.6,0,1-0.4,1-1s-0.4-1-1-1V7z M86.9,5c-0.6,0-1,0.4-1,1s0.4,1,1,1V5z M92.9,7c0.6,0,1-0.4,1-1s-0.4-1-1-1V7z M98.9,5
	c-0.6,0-1,0.4-1,1s0.4,1,1,1V5z M104.9,7c0.6,0,1-0.4,1-1s-0.4-1-1-1V7z M110.9,5c-0.6,0-1,0.4-1,1s0.4,1,1,1V5z M116.8,7
	c0.6,0,1-0.4,1-1s-0.4-1-1-1V7z M122.8,5c-0.6,0-1,0.4-1,1s0.4,1,1,1V5z M128.8,7c0.6,0,1-0.4,1-1s-0.4-1-1-1V7z M134.8,5
	c-0.6,0-1,0.4-1,1s0.4,1,1,1V5z M140.8,7c0.6,0,1-0.4,1-1s-0.4-1-1-1V7z M146.8,5c-0.6,0-1,0.4-1,1s0.4,1,1,1V5z M152.8,7
	c0.6,0,1-0.4,1-1s-0.4-1-1-1V7z M158.8,5c-0.6,0-1,0.4-1,1s0.4,1,1,1V5z M164.8,7c0.6,0,1-0.4,1-1s-0.4-1-1-1V7z M170.8,5
	c-0.6,0-1,0.4-1,1s0.4,1,1,1V5z M176.8,7c0.6,0,1-0.4,1-1s-0.4-1-1-1V7z M182.8,5c-0.6,0-1,0.4-1,1s0.4,1,1,1V5z M188.7,7
	c0.6,0,1-0.4,1-1s-0.4-1-1-1V7z M194.7,5c-0.6,0-1,0.4-1,1s0.4,1,1,1V5z M200.7,7c0.6,0,1-0.4,1-1s-0.4-1-1-1V7z M206.7,5
	c-0.6,0-1,0.4-1,1s0.4,1,1,1V5z M212.7,7c0.6,0,1-0.4,1-1s-0.4-1-1-1V7z M218.7,5c-0.6,0-1,0.4-1,1s0.4,1,1,1V5z M224.7,7
	c0.6,0,1-0.4,1-1s-0.4-1-1-1V7z M230.7,5c-0.6,0-1,0.4-1,1s0.4,1,1,1V5z M236.7,7c0.6,0,1-0.4,1-1s-0.4-1-1-1V7z M242.7,5
	c-0.6,0-1,0.4-1,1s0.4,1,1,1V5z M248.7,7c0.6,0,1-0.4,1-1s-0.4-1-1-1V7z M254.6,5c-0.6,0-1,0.4-1,1s0.4,1,1,1V5z M260.6,7
	c0.6,0,1-0.4,1-1s-0.4-1-1-1V7z M266.6,5c-0.6,0-1,0.4-1,1s0.4,1,1,1V5z M272.6,7c0.6,0,1-0.4,1-1s-0.4-1-1-1V7z M278.6,5
	c-0.6,0-1,0.4-1,1s0.4,1,1,1V5z M284.6,7c0.6,0,1-0.4,1-1s-0.4-1-1-1V7z M290.6,5c-0.6,0-1,0.4-1,1s0.4,1,1,1V5z M296.6,7
	c0.6,0,1-0.4,1-1s-0.4-1-1-1V7z M302.6,5c-0.6,0-1,0.4-1,1s0.4,1,1,1V5z M308.6,7c0.6,0,1-0.4,1-1s-0.4-1-1-1V7z M314.6,5
	c-0.6,0-1,0.4-1,1s0.4,1,1,1V5z M320.6,7c0.6,0,1-0.4,1-1s-0.4-1-1-1V7z M326.5,5c-0.6,0-1,0.4-1,1s0.4,1,1,1V5z M332.5,7
	c0.6,0,1-0.4,1-1s-0.4-1-1-1V7z M338.5,5c-0.6,0-1,0.4-1,1s0.4,1,1,1V5z M344.5,7c0.6,0,1-0.4,1-1s-0.4-1-1-1V7z M350.5,5
	c-0.6,0-1,0.4-1,1s0.4,1,1,1V5z M356.5,7c0.6,0,1-0.4,1-1s-0.4-1-1-1V7z M362.5,5c-0.6,0-1,0.4-1,1s0.4,1,1,1V5z M368.5,7
	c0.6,0,1-0.4,1-1s-0.4-1-1-1V7z M374.5,5c-0.6,0-1,0.4-1,1s0.4,1,1,1V5z M380.5,7c0.6,0,1-0.4,1-1s-0.4-1-1-1V7z M386.5,5
	c-0.6,0-1,0.4-1,1s0.4,1,1,1V5z M392.5,7c0.6,0,1-0.4,1-1s-0.4-1-1-1V7z M398.4,5c-0.6,0-1,0.4-1,1s0.4,1,1,1V5z M404.4,7
	c0.6,0,1-0.4,1-1s-0.4-1-1-1V7z M410.4,5c-0.6,0-1,0.4-1,1s0.4,1,1,1V5z M416.4,7c0.6,0,1-0.4,1-1s-0.4-1-1-1V7z M422.4,5
	c-0.6,0-1,0.4-1,1s0.4,1,1,1V5z M428.4,7c0.6,0,1-0.4,1-1s-0.4-1-1-1V7z M434.4,5c-0.6,0-1,0.4-1,1s0.4,1,1,1V5z M440.4,7
	c0.6,0,1-0.4,1-1s-0.4-1-1-1V7z M446.4,5c-0.6,0-1,0.4-1,1s0.4,1,1,1V5z M452.4,7c0.6,0,1-0.4,1-1s-0.4-1-1-1V7z M458.4,5
	c-0.6,0-1,0.4-1,1s0.4,1,1,1V5z M464.4,7c0.6,0,1-0.4,1-1s-0.4-1-1-1V7z M470.3,5c-0.6,0-1,0.4-1,1s0.4,1,1,1V5z M476.3,7
	c0.6,0,1-0.4,1-1s-0.4-1-1-1V7z M482.3,5c-0.6,0-1,0.4-1,1s0.4,1,1,1V5z M488.3,7c0.6,0,1-0.4,1-1s-0.4-1-1-1V7z M494.3,5
	c-0.6,0-1,0.4-1,1s0.4,1,1,1V5z M500.3,7c0.6,0,1-0.4,1-1s-0.4-1-1-1V7z M506.3,5c-0.6,0-1,0.4-1,1s0.4,1,1,1V5z M512.3,7
	c0.6,0,1-0.4,1-1s-0.4-1-1-1V7z M518.3,5c-0.6,0-1,0.4-1,1s0.4,1,1,1V5z M524.3,7c0.6,0,1-0.4,1-1s-0.4-1-1-1V7z M530.3,5
	c-0.6,0-1,0.4-1,1s0.4,1,1,1V5z M536.2,7c0.6,0,1-0.4,1-1s-0.4-1-1-1V7z M542.2,5c-0.6,0-1,0.4-1,1s0.4,1,1,1V5z M548.2,7
	c0.6,0,1-0.4,1-1s-0.4-1-1-1V7z M554.2,5c-0.6,0-1,0.4-1,1s0.4,1,1,1V5z M560.2,7c0.6,0,1-0.4,1-1s-0.4-1-1-1V7z M566.2,5
	c-0.6,0-1,0.4-1,1s0.4,1,1,1V5z M572.2,7c0.6,0,1-0.4,1-1s-0.4-1-1-1V7z M578.2,5c-0.6,0-1,0.4-1,1s0.4,1,1,1V5z M584.2,7
	c0.6,0,1-0.4,1-1s-0.4-1-1-1V7z M590.2,5c-0.6,0-1,0.4-1,1s0.4,1,1,1V5z M596.2,7c0.6,0,1-0.4,1-1s-0.4-1-1-1V7z M602.2,5
	c-0.6,0-1,0.4-1,1s0.4,1,1,1V5z M608.1,7c0.6,0,1-0.4,1-1s-0.4-1-1-1V7z M614.1,5c-0.6,0-1,0.4-1,1s0.4,1,1,1V5z M620.1,7
	c0.6,0,1-0.4,1-1s-0.4-1-1-1V7z M626.1,5c-0.6,0-1,0.4-1,1s0.4,1,1,1V5z M632.1,7c0.6,0,1-0.4,1-1s-0.4-1-1-1V7z M638.1,5
	c-0.6,0-1,0.4-1,1s0.4,1,1,1V5z M644.1,7c0.6,0,1-0.4,1-1s-0.4-1-1-1V7z M650.1,5c-0.6,0-1,0.4-1,1s0.4,1,1,1V5z M656.1,7
	c0.6,0,1-0.4,1-1s-0.4-1-1-1V7z M662.1,5c-0.6,0-1,0.4-1,1s0.4,1,1,1V5z M668.1,7c0.6,0,1-0.4,1-1s-0.4-1-1-1V7z M674.1,5
	c-0.6,0-1,0.4-1,1s0.4,1,1,1V5z M680,7c0.6,0,1-0.4,1-1s-0.4-1-1-1V7z M686,5c-0.6,0-1,0.4-1,1s0.4,1,1,1V5z M692,7c0.6,0,1-0.4,1-1
	s-0.4-1-1-1V7z M698,5c-0.6,0-1,0.4-1,1s0.4,1,1,1V5z M704,7c0.6,0,1-0.4,1-1s-0.4-1-1-1V7z M710,5c-0.6,0-1,0.4-1,1s0.4,1,1,1V5z
	 M6,7h3V5H6V7z M15,7h6V5h-6V7z M27,7h6V5h-6V7z M39,7h6V5h-6V7z M50.9,7h6V5h-6V7z M62.9,7h6V5h-6V7z M74.9,7h6V5h-6V7z M86.9,7h6
	V5h-6V7z M98.9,7h6V5h-6V7z M110.9,7h6V5h-6V7z M122.8,7h6V5h-6V7z M134.8,7h6V5h-6V7z M146.8,7h6V5h-6V7z M158.8,7h6V5h-6V7z
	 M170.8,7h6V5h-6V7z M182.8,7h6V5h-6V7z M194.7,7h6V5h-6V7z M206.7,7h6V5h-6V7z M218.7,7h6V5h-6V7z M230.7,7h6V5h-6V7z M242.7,7h6V5
	h-6V7z M254.6,7h6V5h-6V7z M266.6,7h6V5h-6V7z M278.6,7h6V5h-6V7z M290.6,7h6V5h-6V7z M302.6,7h6V5h-6V7z M314.6,7h6V5h-6V7z
	 M326.5,7h6V5h-6V7z M338.5,7h6V5h-6V7z M350.5,7h6V5h-6V7z M362.5,7h6V5h-6V7z M374.5,7h6V5h-6V7z M386.5,7h6V5h-6V7z M398.4,7h6V5
	h-6V7z M410.4,7h6V5h-6V7z M422.4,7h6V5h-6V7z M434.4,7h6V5h-6V7z M446.4,7h6V5h-6V7z M458.4,7h6V5h-6V7z M470.3,7h6V5h-6V7z
	 M482.3,7h6V5h-6V7z M494.3,7h6V5h-6V7z M506.3,7h6V5h-6V7z M518.3,7h6V5h-6V7z M530.3,7h6V5h-6V7z M542.2,7h6V5h-6V7z M554.2,7h6V5
	h-6V7z M566.2,7h6V5h-6V7z M578.2,7h6V5h-6V7z M590.2,7h6V5h-6V7z M602.2,7h6V5h-6V7z M614.1,7h6V5h-6V7z M626.1,7h6V5h-6V7z
	 M638.1,7h6V5h-6V7z M650.1,7h6V5h-6V7z M662.1,7h6V5h-6V7z M674.1,7h6V5h-6V7z M686,7h6V5h-6V7z M698,7h6V5h-6V7z M710,7h3V5h-3V7z
	"/>
<path class="st1" d="M6,1L6,1C3.2,1,1,3.2,1,6l0,0c0,2.8,2.2,5,5,5l0,0c2.8,0,5-2.2,5-5l0,0C11,3.2,8.8,1,6,1z"/>
</svg>
