<?xml version="1.0" encoding="utf-8"?>
<!-- Generator: Adobe Illustrator 26.4.1, SVG Export Plug-In . SVG Version: 6.00 Build 0)  -->
<svg version="1.1" id="Layer_1" xmlns="http://www.w3.org/2000/svg" xmlns:xlink="http://www.w3.org/1999/xlink" x="0px" y="0px"
	 viewBox="0 0 1440 524" style="enable-background:new 0 0 1440 524;" xml:space="preserve">
<style type="text/css">
	.st0{clip-path:url(#SVGID_00000150098839673980564100000013875261761357189772_);}
	.st1{fill:url(#SVGID_00000084490136763355438460000015870885030277969329_);}
	.st2{fill:#FFFFFF;stroke:#000000;stroke-width:2;}
</style>
<g>
	<defs>
		<rect id="SVGID_1_" width="1440" height="524"/>
	</defs>
	<clipPath id="SVGID_00000112605491080523152220000010095563747216925107_">
		<use xlink:href="#SVGID_1_"  style="overflow:visible;"/>
	</clipPath>
	<g style="clip-path:url(#SVGID_00000112605491080523152220000010095563747216925107_);">
		
			<linearGradient id="SVGID_00000159460082351733517260000007637858534302489781_" gradientUnits="userSpaceOnUse" x1="130.4076" y1="608.2188" x2="339.1077" y2="240.5217" gradientTransform="matrix(1 0 0 -1 0 526)">
			<stop  offset="0" style="stop-color:#FFFFFF"/>
			<stop  offset="1" style="stop-color:#E2E8F0"/>
		</linearGradient>
		<path style="fill:url(#SVGID_00000159460082351733517260000007637858534302489781_);" d="M75-14c0-0.6-0.4-1-1-1s-1,0.4-1,1H75z
			 M703,478.7c-2.9,0-5.3,2.4-5.3,5.3s2.4,5.3,5.3,5.3s5.3-2.4,5.3-5.3S705.9,478.7,703,478.7z M73-11c0,0.6,0.4,1,1,1s1-0.4,1-1H73
			z M75-5c0-0.6-0.4-1-1-1s-1,0.4-1,1H75z M73,0.9c0,0.6,0.4,1,1,1s1-0.4,1-1H73z M75,6.9c0-0.6-0.4-1-1-1s-1,0.4-1,1H75z M73,12.9
			c0,0.6,0.4,1,1,1s1-0.4,1-1H73z M75,18.9c0-0.6-0.4-1-1-1s-1,0.4-1,1H75z M73,24.8c0,0.6,0.4,1,1,1s1-0.4,1-1H73z M75,30.8
			c0-0.6-0.4-1-1-1s-1,0.4-1,1H75z M73,36.8c0,0.6,0.4,1,1,1s1-0.4,1-1H73z M75,42.8c0-0.6-0.4-1-1-1s-1,0.4-1,1H75z M73,48.7
			c0,0.6,0.4,1,1,1s1-0.4,1-1H73z M75,54.7c0-0.6-0.4-1-1-1s-1,0.4-1,1H75z M73,60.7c0,0.6,0.4,1,1,1s1-0.4,1-1H73z M75,66.7
			c0-0.6-0.4-1-1-1s-1,0.4-1,1H75z M73,72.6c0,0.6,0.4,1,1,1s1-0.4,1-1H73z M75,78.6c0-0.6-0.4-1-1-1s-1,0.4-1,1H75z M73,84.6
			c0,0.6,0.4,1,1,1s1-0.4,1-1H73z M75,90.5c0-0.6-0.4-1-1-1s-1,0.4-1,1H75z M73,96.5c0,0.6,0.4,1,1,1s1-0.4,1-1H73z M75,102.5
			c0-0.6-0.4-1-1-1s-1,0.4-1,1H75z M73,108.5c0,0.6,0.4,1,1,1s1-0.4,1-1H73z M75,114.4c0-0.6-0.4-1-1-1s-1,0.4-1,1H75z M73,120.4
			c0,0.6,0.4,1,1,1s1-0.4,1-1H73z M75,126.4c0-0.6-0.4-1-1-1s-1,0.4-1,1H75z M73,132.4c0,0.6,0.4,1,1,1s1-0.4,1-1H73z M75,138.3
			c0-0.6-0.4-1-1-1s-1,0.4-1,1H75z M73,144.3c0,0.6,0.4,1,1,1s1-0.4,1-1H73z M75,150.3c0-0.6-0.4-1-1-1s-1,0.4-1,1H75z M73,156.3
			c0,0.6,0.4,1,1,1s1-0.4,1-1H73z M75,162.2c0-0.6-0.4-1-1-1s-1,0.4-1,1H75z M73,168.2c0,0.6,0.4,1,1,1s1-0.4,1-1H73z M75,174.2
			c0-0.6-0.4-1-1-1s-1,0.4-1,1H75z M73,180.2c0,0.6,0.4,1,1,1s1-0.4,1-1H73z M75,186.1c0-0.6-0.4-1-1-1s-1,0.4-1,1H75z M73,192.1
			c0,0.6,0.4,1,1,1s1-0.4,1-1H73z M75,198.1c0-0.6-0.4-1-1-1s-1,0.4-1,1H75z M73,204.1c0,0.6,0.4,1,1,1s1-0.4,1-1H73z M75,210
			c0-0.6-0.4-1-1-1s-1,0.4-1,1H75z M73,216c0,0.6,0.4,1,1,1s1-0.4,1-1H73z M75,222c0-0.6-0.4-1-1-1s-1,0.4-1,1H75z M73,228
			c0,0.6,0.4,1,1,1s1-0.4,1-1H73z M75,233.9c0-0.6-0.4-1-1-1s-1,0.4-1,1H75z M73,239.9c0,0.6,0.4,1,1,1s1-0.4,1-1H73z M75,245.9
			c0-0.6-0.4-1-1-1s-1,0.4-1,1H75z M73,251.8c0,0.6,0.4,1,1,1s1-0.4,1-1H73z M75,257.8c0-0.6-0.4-1-1-1s-1,0.4-1,1H75z M73,263.8
			c0,0.6,0.4,1,1,1s1-0.4,1-1H73z M75,269.8c0-0.6-0.4-1-1-1s-1,0.4-1,1H75z M73,275.7c0,0.6,0.4,1,1,1s1-0.4,1-1H73z M75,281.7
			c0-0.6-0.4-1-1-1s-1,0.4-1,1H75z M73,287.7c0,0.6,0.4,1,1,1s1-0.4,1-1H73z M75,293.7c0-0.6-0.4-1-1-1s-1,0.4-1,1H75z M73,299.6
			c0,0.6,0.4,1,1,1s1-0.4,1-1H73z M75,305.6c0-0.6-0.4-1-1-1s-1,0.4-1,1H75z M73,311.6c0,0.6,0.4,1,1,1s1-0.4,1-1H73z M75,317.6
			c0-0.6-0.4-1-1-1s-1,0.4-1,1H75z M73,323.5c0,0.6,0.4,1,1,1s1-0.4,1-1H73z M75,329.5c0-0.6-0.4-1-1-1s-1,0.4-1,1H75z M73.1,335.7
			c0,0.6,0.5,1,1.1,0.9c0.6,0,1-0.5,0.9-1.1L73.1,335.7z M76.1,341.6c-0.1-0.5-0.7-0.9-1.2-0.7c-0.5,0.1-0.9,0.7-0.7,1.2L76.1,341.6
			z M76.1,348.2c0.2,0.5,0.8,0.8,1.3,0.5c0.5-0.2,0.8-0.8,0.5-1.3L76.1,348.2z M80.7,352.9c-0.3-0.5-0.9-0.6-1.4-0.3
			c-0.5,0.3-0.6,0.9-0.3,1.4L80.7,352.9z M82.8,359.1c0.4,0.4,1,0.5,1.4,0.1c0.4-0.4,0.5-1,0.1-1.4L82.8,359.1z M88.7,362.2
			c-0.4-0.4-1.1-0.3-1.4,0.1c-0.4,0.4-0.3,1.1,0.1,1.4L88.7,362.2z M92.6,367.5c0.5,0.3,1.1,0.1,1.4-0.3c0.3-0.5,0.1-1.1-0.3-1.4
			L92.6,367.5z M99.1,368.5c-0.5-0.2-1.1,0-1.3,0.5c-0.2,0.5,0,1.1,0.5,1.3L99.1,368.5z M104.4,372.4c0.5,0.1,1.1-0.2,1.2-0.7
			c0.1-0.5-0.2-1.1-0.7-1.2L104.4,372.4z M110.9,371.4c-0.6,0-1,0.4-1.1,0.9c0,0.6,0.4,1,0.9,1.1L110.9,371.4z M117,373.5
			c0.6,0,1-0.4,1-1s-0.4-1-1-1V373.5z M123,371.5c-0.6,0-1,0.4-1,1s0.4,1,1,1V371.5z M128.9,373.5c0.6,0,1-0.4,1-1s-0.4-1-1-1V373.5
			z M134.9,371.5c-0.6,0-1,0.4-1,1s0.4,1,1,1V371.5z M140.9,373.5c0.6,0,1-0.4,1-1s-0.4-1-1-1V373.5z M146.8,371.5c-0.6,0-1,0.4-1,1
			s0.4,1,1,1V371.5z M152.8,373.5c0.6,0,1-0.4,1-1s-0.4-1-1-1V373.5z M158.8,371.5c-0.6,0-1,0.4-1,1s0.4,1,1,1V371.5z M164.7,373.5
			c0.6,0,1-0.4,1-1s-0.4-1-1-1V373.5z M170.7,371.5c-0.6,0-1,0.4-1,1s0.4,1,1,1V371.5z M176.7,373.5c0.6,0,1-0.4,1-1s-0.4-1-1-1
			V373.5z M182.6,371.5c-0.6,0-1,0.4-1,1s0.4,1,1,1V371.5z M188.6,373.5c0.6,0,1-0.4,1-1s-0.4-1-1-1V373.5z M194.6,371.5
			c-0.6,0-1,0.4-1,1s0.4,1,1,1V371.5z M200.5,373.5c0.6,0,1-0.4,1-1s-0.4-1-1-1V373.5z M206.5,371.5c-0.6,0-1,0.4-1,1s0.4,1,1,1
			V371.5z M212.5,373.5c0.6,0,1-0.4,1-1s-0.4-1-1-1V373.5z M218.4,371.5c-0.6,0-1,0.4-1,1s0.4,1,1,1V371.5z M224.4,373.5
			c0.6,0,1-0.4,1-1s-0.4-1-1-1V373.5z M230.4,371.5c-0.6,0-1,0.4-1,1s0.4,1,1,1V371.5z M236.3,373.5c0.6,0,1-0.4,1-1s-0.4-1-1-1
			V373.5z M242.3,371.5c-0.6,0-1,0.4-1,1s0.4,1,1,1V371.5z M248.3,373.5c0.6,0,1-0.4,1-1s-0.4-1-1-1V373.5z M254.2,371.5
			c-0.6,0-1,0.4-1,1s0.4,1,1,1V371.5z M260.2,373.5c0.6,0,1-0.4,1-1s-0.4-1-1-1V373.5z M266.2,371.5c-0.6,0-1,0.4-1,1s0.4,1,1,1
			V371.5z M272.1,373.5c0.6,0,1-0.4,1-1s-0.4-1-1-1V373.5z M278.1,371.5c-0.6,0-1,0.4-1,1s0.4,1,1,1V371.5z M284.1,373.5
			c0.6,0,1-0.4,1-1s-0.4-1-1-1V373.5z M290,371.5c-0.6,0-1,0.4-1,1s0.4,1,1,1V371.5z M296,373.5c0.6,0,1-0.4,1-1s-0.4-1-1-1V373.5z
			 M302,371.5c-0.6,0-1,0.4-1,1s0.4,1,1,1V371.5z M307.9,373.5c0.6,0,1-0.4,1-1s-0.4-1-1-1V373.5z M313.9,371.5c-0.6,0-1,0.4-1,1
			s0.4,1,1,1V371.5z M319.9,373.5c0.6,0,1-0.4,1-1s-0.4-1-1-1V373.5z M325.8,371.5c-0.6,0-1,0.4-1,1s0.4,1,1,1V371.5z M331.8,373.5
			c0.6,0,1-0.4,1-1s-0.4-1-1-1V373.5z M337.8,371.5c-0.6,0-1,0.4-1,1s0.4,1,1,1V371.5z M343.7,373.5c0.6,0,1-0.4,1-1s-0.4-1-1-1
			V373.5z M349.7,371.5c-0.6,0-1,0.4-1,1s0.4,1,1,1V371.5z M355.7,373.5c0.6,0,1-0.4,1-1s-0.4-1-1-1V373.5z M361.6,371.5
			c-0.6,0-1,0.4-1,1s0.4,1,1,1V371.5z M367.6,373.5c0.6,0,1-0.4,1-1s-0.4-1-1-1V373.5z M373.6,371.5c-0.6,0-1,0.4-1,1s0.4,1,1,1
			V371.5z M379.5,373.5c0.6,0,1-0.4,1-1s-0.4-1-1-1V373.5z M385.5,371.5c-0.6,0-1,0.4-1,1s0.4,1,1,1V371.5z M391.5,373.5
			c0.6,0,1-0.4,1-1s-0.4-1-1-1V373.5z M397.5,371.5c-0.6,0-1,0.4-1,1s0.4,1,1,1V371.5z M403.4,373.5c0.6,0,1-0.4,1-1s-0.4-1-1-1
			V373.5z M409.4,371.5c-0.6,0-1,0.4-1,1s0.4,1,1,1V371.5z M415.4,373.5c0.6,0,1-0.4,1-1s-0.4-1-1-1V373.5z M421.3,371.5
			c-0.6,0-1,0.4-1,1s0.4,1,1,1V371.5z M427.3,373.5c0.6,0,1-0.4,1-1s-0.4-1-1-1V373.5z M433.3,371.5c-0.6,0-1,0.4-1,1s0.4,1,1,1
			V371.5z M439.2,373.5c0.6,0,1-0.4,1-1s-0.4-1-1-1V373.5z M445.2,371.5c-0.6,0-1,0.4-1,1s0.4,1,1,1V371.5z M451.2,373.5
			c0.6,0,1-0.4,1-1s-0.4-1-1-1V373.5z M457.1,371.5c-0.6,0-1,0.4-1,1s0.4,1,1,1V371.5z M463.1,373.5c0.6,0,1-0.4,1-1s-0.4-1-1-1
			V373.5z M469.1,371.5c-0.6,0-1,0.4-1,1s0.4,1,1,1V371.5z M475,373.5c0.6,0,1-0.4,1-1s-0.4-1-1-1V373.5z M481,371.5
			c-0.6,0-1,0.4-1,1s0.4,1,1,1V371.5z M487,373.5c0.6,0,1-0.4,1-1s-0.4-1-1-1V373.5z M492.9,371.5c-0.6,0-1,0.4-1,1s0.4,1,1,1V371.5
			z M498.9,373.5c0.6,0,1-0.4,1-1s-0.4-1-1-1V373.5z M504.9,371.5c-0.6,0-1,0.4-1,1s0.4,1,1,1V371.5z M510.8,373.5c0.6,0,1-0.4,1-1
			s-0.4-1-1-1V373.5z M516.8,371.5c-0.6,0-1,0.4-1,1s0.4,1,1,1V371.5z M522.8,373.5c0.6,0,1-0.4,1-1s-0.4-1-1-1V373.5z M528.7,371.5
			c-0.6,0-1,0.4-1,1s0.4,1,1,1V371.5z M534.7,373.5c0.6,0,1-0.4,1-1s-0.4-1-1-1V373.5z M540.7,371.5c-0.6,0-1,0.4-1,1s0.4,1,1,1
			V371.5z M546.6,373.5c0.6,0,1-0.4,1-1s-0.4-1-1-1V373.5z M552.6,371.5c-0.6,0-1,0.4-1,1s0.4,1,1,1V371.5z M558.6,373.5
			c0.6,0,1-0.4,1-1s-0.4-1-1-1V373.5z M564.5,371.5c-0.6,0-1,0.4-1,1s0.4,1,1,1V371.5z M570.5,373.5c0.6,0,1-0.4,1-1s-0.4-1-1-1
			V373.5z M576.5,371.5c-0.6,0-1,0.4-1,1s0.4,1,1,1V371.5z M582.4,373.5c0.6,0,1-0.4,1-1s-0.4-1-1-1V373.5z M588.4,371.5
			c-0.6,0-1,0.4-1,1s0.4,1,1,1V371.5z M594.4,373.5c0.6,0,1-0.4,1-1s-0.4-1-1-1V373.5z M600.3,371.5c-0.6,0-1,0.4-1,1s0.4,1,1,1
			V371.5z M606.3,373.5c0.6,0,1-0.4,1-1s-0.4-1-1-1V373.5z M612.3,371.5c-0.6,0-1,0.4-1,1s0.4,1,1,1V371.5z M618.2,373.5
			c0.6,0,1-0.4,1-1s-0.4-1-1-1V373.5z M624.2,371.5c-0.6,0-1,0.4-1,1s0.4,1,1,1V371.5z M630.2,373.5c0.6,0,1-0.4,1-1s-0.4-1-1-1
			V373.5z M636.1,371.5c-0.6,0-1,0.4-1,1s0.4,1,1,1V371.5z M642.1,373.5c0.6,0,1-0.4,1-1s-0.4-1-1-1V373.5z M648.1,371.5
			c-0.6,0-1,0.4-1,1s0.4,1,1,1V371.5z M654,373.5c0.6,0,1-0.4,1-1s-0.4-1-1-1V373.5z M660,371.5c-0.6,0-1,0.4-1,1s0.4,1,1,1V371.5z
			 M666.1,373.6c0.6,0,1-0.4,1.1-0.9c0-0.6-0.4-1-0.9-1.1L666.1,373.6z M672.6,372.6c-0.5-0.1-1.1,0.2-1.2,0.7
			c-0.1,0.5,0.2,1.1,0.7,1.2L672.6,372.6z M677.9,376.5c0.5,0.2,1.1,0,1.3-0.5c0.2-0.5,0-1.1-0.5-1.3L677.9,376.5z M684.4,377.5
			c-0.5-0.3-1.1-0.1-1.4,0.3s-0.1,1.1,0.3,1.4L684.4,377.5z M688.3,382.8c0.4,0.4,1.1,0.3,1.4-0.1c0.4-0.4,0.3-1.1-0.1-1.4
			L688.3,382.8z M694.2,385.9c-0.4-0.4-1-0.5-1.4-0.1c-0.4,0.4-0.5,1-0.1,1.4L694.2,385.9z M696.3,392.1c0.3,0.5,0.9,0.6,1.4,0.3
			c0.5-0.3,0.6-0.9,0.3-1.4L696.3,392.1z M700.9,396.8c-0.2-0.5-0.8-0.8-1.3-0.5c-0.5,0.2-0.8,0.8-0.5,1.3L700.9,396.8z
			 M700.9,403.4c0.1,0.5,0.7,0.9,1.2,0.7c0.5-0.1,0.9-0.7,0.7-1.2L700.9,403.4z M703.9,409.3c0-0.6-0.5-1-1.1-0.9
			c-0.6,0-1,0.5-0.9,1.1L703.9,409.3z M702,415.5c0,0.6,0.4,1,1,1s1-0.4,1-1H702z M704,421.4c0-0.6-0.4-1-1-1s-1,0.4-1,1H704z
			 M702,427.4c0,0.6,0.4,1,1,1s1-0.4,1-1H702z M704,433.4c0-0.6-0.4-1-1-1s-1,0.4-1,1H704z M702,439.3c0,0.6,0.4,1,1,1s1-0.4,1-1
			H702z M704,445.3c0-0.6-0.4-1-1-1s-1,0.4-1,1H704z M702,451.2c0,0.6,0.4,1,1,1s1-0.4,1-1H702z M704,457.2c0-0.6-0.4-1-1-1
			s-1,0.4-1,1H704z M702,463.1c0,0.6,0.4,1,1,1s1-0.4,1-1H702z M704,469.1c0-0.6-0.4-1-1-1s-1,0.4-1,1H704z M702,475.1
			c0,0.6,0.4,1,1,1s1-0.4,1-1H702z M704,481c0-0.6-0.4-1-1-1s-1,0.4-1,1H704z M73-14v3h2v-3H73z M73-5v6h2v-6H73z M73,6.9v6h2v-6H73
			z M73,18.9v6h2v-6H73z M73,30.8v6h2v-6H73z M73,42.8v6h2v-6H73z M73,54.7v6h2v-6H73z M73,66.7v6h2v-6H73z M73,78.6v6h2v-6H73z
			 M73,90.5v6h2v-6H73z M73,102.5v6h2v-6H73z M73,114.4v6h2v-6H73z M73,126.4v6h2v-6H73z M73,138.3v6h2v-6H73z M73,150.3v6h2v-6H73z
			 M73,162.2v6h2v-6H73z M73,174.2v6h2v-6H73z M73,186.1v6h2v-6H73z M73,198.1v6h2v-6H73z M73,210v6h2v-6H73z M73,222v6h2v-6H73z
			 M73,233.9v6h2v-6H73z M73,245.9v6h2v-6H73z M73,257.8v6h2v-6H73z M73,269.8v6h2v-6H73z M73,281.7v6h2v-6H73z M73,293.7v6h2v-6H73
			z M73,305.6v6h2v-6H73z M73,317.6v6h2v-6H73z M73,329.5v3h2v-3H73z M73,332.5c0,1.1,0,2.2,0.1,3.2l2-0.2c-0.1-1-0.1-2-0.1-3.1H73z
			 M74.1,342.1c0.5,2.1,1.2,4.2,2,6.1l1.8-0.8c-0.8-1.9-1.4-3.8-1.9-5.8L74.1,342.1z M79,353.9c1.1,1.8,2.4,3.6,3.8,5.2l1.5-1.3
			c-1.3-1.5-2.5-3.2-3.6-4.9L79,353.9z M87.4,363.7c1.6,1.4,3.4,2.7,5.2,3.8l1-1.7c-1.7-1.1-3.4-2.3-4.9-3.6L87.4,363.7z
			 M98.3,370.4c2,0.8,4,1.5,6.1,2l0.5-1.9c-2-0.5-3.9-1.1-5.8-1.9L98.3,370.4z M110.8,373.4c1.1,0.1,2.1,0.1,3.2,0.1v-2
			c-1,0-2.1,0-3.1-0.1L110.8,373.4z M114,373.5h3v-2h-3V373.5z M123,373.5h6v-2h-6V373.5z M134.9,373.5h6v-2h-6V373.5z M146.8,373.5
			h6v-2h-6V373.5z M158.8,373.5h6v-2h-6V373.5z M170.7,373.5h6v-2h-6V373.5z M182.6,373.5h6v-2h-6V373.5z M194.6,373.5h6v-2h-6
			V373.5z M206.5,373.5h6v-2h-6V373.5z M218.4,373.5h6v-2h-6V373.5z M230.4,373.5h6v-2h-6V373.5z M242.3,373.5h6v-2h-6V373.5z
			 M254.2,373.5h6v-2h-6V373.5z M266.2,373.5h6v-2h-6V373.5z M278.1,373.5h6v-2h-6V373.5z M290,373.5h6v-2h-6V373.5z M302,373.5h6
			v-2h-6V373.5z M313.9,373.5h6v-2h-6V373.5z M325.8,373.5h6v-2h-6V373.5z M337.8,373.5h6v-2h-6V373.5z M349.7,373.5h6v-2h-6V373.5z
			 M361.6,373.5h6v-2h-6V373.5z M373.6,373.5h6v-2h-6V373.5z M385.5,373.5h6v-2h-6V373.5z M397.5,373.5h6v-2h-6V373.5z M409.4,373.5
			h6v-2h-6V373.5z M421.3,373.5h6v-2h-6V373.5z M433.3,373.5h6v-2h-6V373.5z M445.2,373.5h6v-2h-6V373.5z M457.1,373.5h6v-2h-6
			V373.5z M469.1,373.5h6v-2h-6V373.5z M481,373.5h6v-2h-6V373.5z M492.9,373.5h6v-2h-6V373.5z M504.9,373.5h6v-2h-6V373.5z
			 M516.8,373.5h6v-2h-6V373.5z M528.7,373.5h6v-2h-6V373.5z M540.7,373.5h6v-2h-6V373.5z M552.6,373.5h6v-2h-6V373.5z M564.5,373.5
			h6v-2h-6V373.5z M576.5,373.5h6v-2h-6V373.5z M588.4,373.5h6v-2h-6V373.5z M600.3,373.5h6v-2h-6V373.5z M612.3,373.5h6v-2h-6
			V373.5z M624.2,373.5h6v-2h-6V373.5z M636.1,373.5h6v-2h-6V373.5z M648.1,373.5h6v-2h-6V373.5z M660,373.5h3v-2h-3V373.5z
			 M663,373.5c1,0,2.1,0,3.1,0.1l0.2-2c-1.1-0.1-2.1-0.1-3.2-0.1V373.5z M672.1,374.6c2,0.5,3.9,1.1,5.8,1.9l0.8-1.8
			c-2-0.8-4-1.5-6.1-2L672.1,374.6z M683.4,379.2c1.7,1.1,3.4,2.3,4.9,3.6l1.3-1.5c-1.6-1.4-3.4-2.7-5.2-3.8L683.4,379.2z
			 M692.7,387.2c1.3,1.5,2.5,3.2,3.6,4.9l1.7-1c-1.1-1.8-2.4-3.6-3.8-5.2L692.7,387.2z M699,397.6c0.8,1.9,1.4,3.8,1.9,5.8l1.9-0.5
			c-0.5-2.1-1.2-4.2-2-6.1L699,397.6z M701.9,409.4c0.1,1,0.1,2,0.1,3.1h2c0-1.1,0-2.2-0.1-3.2L701.9,409.4z M702,412.5v3h2v-3H702z
			 M702,421.4v6h2v-6H702z M702,433.4v6h2v-6H702z M702,445.3v6h2v-6H702z M702,457.2v6h2v-6H702z M702,469.1v6h2v-6H702z M702,481
			v3h2v-3H702z"/>
		<path class="st2" d="M703,479L703,479c2.8,0,5,2.2,5,5l0,0c0,2.8-2.2,5-5,5l0,0c-2.8,0-5-2.2-5-5l0,0C698,481.2,700.2,479,703,479
			z"/>
	</g>
</g>
</svg>
