<?xml version="1.0" encoding="utf-8"?>
<!-- Generator: Adobe Illustrator 26.4.1, SVG Export Plug-In . SVG Version: 6.00 Build 0)  -->
<svg version="1.1" id="Layer_1" xmlns="http://www.w3.org/2000/svg" xmlns:xlink="http://www.w3.org/1999/xlink" x="0px" y="0px"
	 viewBox="0 0 372 373" style="enable-background:new 0 0 372 373;" xml:space="preserve">
<style type="text/css">
	.st0{fill:#E5E5E5;}
	.st1{fill:#FFFFFF;stroke:#747474;stroke-width:2;stroke-miterlimit:4;}
</style>
<path class="st0" d="M2,371.5c0,0.6-0.4,1-1,1c-0.6,0-1-0.4-1-1H2z M382.2,259c0-2.9,2.4-5.3,5.3-5.3s5.3,2.4,5.3,5.3
	s-2.4,5.3-5.3,5.3S382.2,261.9,382.2,259z M0,368.5c0-0.6,0.4-1,1-1c0.6,0,1,0.4,1,1H0z M2,362.4c0,0.6-0.4,1-1,1c-0.6,0-1-0.4-1-1
	H2z M0,356.4c0-0.6,0.4-1,1-1c0.6,0,1,0.4,1,1H0z M2,350.4c0,0.6-0.4,1-1,1c-0.6,0-1-0.4-1-1H2z M0,344.3c0-0.6,0.4-1,1-1
	c0.6,0,1,0.4,1,1H0z M2,338.3c0,0.6-0.4,1-1,1c-0.6,0-1-0.4-1-1H2z M0,332.2c0-0.6,0.4-1,1-1c0.6,0,1,0.4,1,1H0z M2,326.2
	c0,0.6-0.4,1-1,1c-0.6,0-1-0.4-1-1H2z M0,320.1c0-0.6,0.4-1,1-1c0.6,0,1,0.4,1,1H0z M2,314.1c0,0.6-0.4,1-1,1c-0.6,0-1-0.4-1-1H2z
	 M0,308.1c0-0.6,0.4-1,1-1c0.6,0,1,0.4,1,1H0z M2,302c0,0.6-0.4,1-1,1c-0.6,0-1-0.4-1-1H2z M0.1,295.8c0-0.6,0.5-1,1.1-0.9
	c0.6,0,1,0.5,0.9,1.1L0.1,295.8z M3.1,289.9c-0.1,0.5-0.7,0.9-1.2,0.7c-0.5-0.1-0.9-0.7-0.7-1.2L3.1,289.9z M3.1,283.3
	c0.2-0.5,0.8-0.8,1.3-0.5c0.5,0.2,0.8,0.8,0.5,1.3L3.1,283.3z M7.7,278.6c-0.3,0.5-0.9,0.6-1.4,0.3c-0.5-0.3-0.6-0.9-0.3-1.4
	L7.7,278.6z M9.8,272.4c0.4-0.4,1-0.5,1.4-0.1c0.4,0.4,0.5,1,0.1,1.4L9.8,272.4z M15.7,269.3c-0.4,0.4-1.1,0.3-1.4-0.1
	s-0.3-1.1,0.1-1.4L15.7,269.3z M19.6,264c0.5-0.3,1.1-0.1,1.4,0.3s0.1,1.1-0.3,1.4L19.6,264z M26.1,263c-0.5,0.2-1.1,0-1.3-0.5
	c-0.2-0.5,0-1.1,0.5-1.3L26.1,263z M31.4,259.1c0.5-0.1,1.1,0.2,1.2,0.7c0.1,0.5-0.2,1.1-0.7,1.2L31.4,259.1z M37.9,260.1
	c-0.6,0-1-0.4-1.1-0.9c0-0.6,0.4-1,0.9-1.1L37.9,260.1z M44,258c0.6,0,1,0.4,1,1s-0.4,1-1,1V258z M50,260c-0.6,0-1-0.4-1-1
	s0.4-1,1-1V260z M55.9,258c0.6,0,1,0.4,1,1s-0.4,1-1,1V258z M61.9,260c-0.6,0-1-0.4-1-1s0.4-1,1-1V260z M67.9,258c0.6,0,1,0.4,1,1
	s-0.4,1-1,1V258z M73.9,260c-0.6,0-1-0.4-1-1s0.4-1,1-1V260z M79.8,258c0.6,0,1,0.4,1,1s-0.4,1-1,1V258z M85.8,260c-0.6,0-1-0.4-1-1
	s0.4-1,1-1V260z M91.8,258c0.6,0,1,0.4,1,1s-0.4,1-1,1V258z M97.8,260c-0.6,0-1-0.4-1-1s0.4-1,1-1V260z M103.7,258c0.6,0,1,0.4,1,1
	s-0.4,1-1,1V258z M109.7,260c-0.6,0-1-0.4-1-1s0.4-1,1-1V260z M115.7,258c0.6,0,1,0.4,1,1s-0.4,1-1,1V258z M121.7,260
	c-0.6,0-1-0.4-1-1s0.4-1,1-1V260z M127.6,258c0.6,0,1,0.4,1,1s-0.4,1-1,1V258z M133.6,260c-0.6,0-1-0.4-1-1s0.4-1,1-1V260z
	 M139.6,258c0.6,0,1,0.4,1,1s-0.4,1-1,1V258z M145.5,260c-0.6,0-1-0.4-1-1s0.4-1,1-1V260z M151.5,258c0.6,0,1,0.4,1,1s-0.4,1-1,1
	V258z M157.5,260c-0.6,0-1-0.4-1-1s0.4-1,1-1V260z M163.5,258c0.6,0,1,0.4,1,1s-0.4,1-1,1V258z M169.4,260c-0.6,0-1-0.4-1-1
	s0.4-1,1-1V260z M175.4,258c0.6,0,1,0.4,1,1s-0.4,1-1,1V258z M181.4,260c-0.6,0-1-0.4-1-1s0.4-1,1-1V260z M187.4,258
	c0.6,0,1,0.4,1,1s-0.4,1-1,1V258z M193.3,260c-0.6,0-1-0.4-1-1s0.4-1,1-1V260z M199.3,258c0.6,0,1,0.4,1,1s-0.4,1-1,1V258z
	 M205.3,260c-0.6,0-1-0.4-1-1s0.4-1,1-1V260z M211.3,258c0.6,0,1,0.4,1,1s-0.4,1-1,1V258z M217.2,260c-0.6,0-1-0.4-1-1s0.4-1,1-1
	V260z M223.2,258c0.6,0,1,0.4,1,1s-0.4,1-1,1V258z M229.2,260c-0.6,0-1-0.4-1-1s0.4-1,1-1V260z M235.2,258c0.6,0,1,0.4,1,1
	s-0.4,1-1,1V258z M241.1,260c-0.6,0-1-0.4-1-1s0.4-1,1-1V260z M247.1,258c0.6,0,1,0.4,1,1s-0.4,1-1,1V258z M253.1,260
	c-0.6,0-1-0.4-1-1s0.4-1,1-1V260z M259.1,258c0.6,0,1,0.4,1,1s-0.4,1-1,1V258z M265,260c-0.6,0-1-0.4-1-1s0.4-1,1-1V260z M271,258
	c0.6,0,1,0.4,1,1s-0.4,1-1,1V258z M277,260c-0.6,0-1-0.4-1-1s0.4-1,1-1V260z M283,258c0.6,0,1,0.4,1,1s-0.4,1-1,1V258z M288.9,260
	c-0.6,0-1-0.4-1-1s0.4-1,1-1V260z M294.9,258c0.6,0,1,0.4,1,1s-0.4,1-1,1V258z M300.9,260c-0.6,0-1-0.4-1-1s0.4-1,1-1V260z
	 M306.8,258c0.6,0,1,0.4,1,1s-0.4,1-1,1V258z M312.8,260c-0.6,0-1-0.4-1-1s0.4-1,1-1V260z M318.8,258c0.6,0,1,0.4,1,1s-0.4,1-1,1
	V258z M324.8,260c-0.6,0-1-0.4-1-1s0.4-1,1-1V260z M330.7,258c0.6,0,1,0.4,1,1s-0.4,1-1,1V258z M336.7,260c-0.6,0-1-0.4-1-1
	s0.4-1,1-1V260z M342.7,258c0.6,0,1,0.4,1,1s-0.4,1-1,1V258z M348.7,260c-0.6,0-1-0.4-1-1s0.4-1,1-1V260z M354.6,258
	c0.6,0,1,0.4,1,1s-0.4,1-1,1V258z M360.6,260c-0.6,0-1-0.4-1-1s0.4-1,1-1V260z M366.6,258c0.6,0,1,0.4,1,1s-0.4,1-1,1V258z
	 M372.6,260c-0.6,0-1-0.4-1-1s0.4-1,1-1V260z M378.5,258c0.6,0,1,0.4,1,1s-0.4,1-1,1V258z M384.5,260c-0.6,0-1-0.4-1-1s0.4-1,1-1
	V260z M0,371.5v-3h2v3H0z M0,362.4v-6h2v6H0z M0,350.4v-6h2v6H0z M0,338.3v-6h2v6H0z M0,326.2v-6h2v6H0z M0,314.1v-6h2v6H0z M0,302
	v-3h2v3H0z M0,299c0-1.1,0-2.2,0.1-3.2l2,0.2C2,296.9,2,298,2,299H0z M1.1,289.4c0.5-2.1,1.2-4.2,2-6.1l1.8,0.8
	c-0.8,1.9-1.4,3.8-1.9,5.8L1.1,289.4z M6,277.6c1.1-1.8,2.4-3.6,3.8-5.2l1.5,1.3c-1.3,1.5-2.5,3.2-3.6,4.9L6,277.6z M14.4,267.8
	c1.6-1.4,3.4-2.7,5.2-3.8l1,1.7c-1.7,1.1-3.4,2.3-4.9,3.6L14.4,267.8z M25.3,261.1c2-0.8,4-1.5,6.1-2l0.5,1.9
	c-2,0.5-3.9,1.1-5.8,1.9L25.3,261.1z M37.8,258.1c1.1-0.1,2.1-0.1,3.2-0.1v2c-1,0-2.1,0-3.1,0.1L37.8,258.1z M41,258h3v2h-3V258z
	 M50,258h6v2h-6V258z M61.9,258h6v2h-6V258z M73.9,258h6v2h-6V258z M85.8,258h6v2h-6V258z M97.8,258h6v2h-6V258z M109.7,258h6v2h-6
	V258z M121.7,258h6v2h-6V258z M133.6,258h6v2h-6V258z M145.5,258h6v2h-6V258z M157.5,258h6v2h-6V258z M169.4,258h6v2h-6V258z
	 M181.4,258h6v2h-6V258z M193.3,258h6v2h-6V258z M205.3,258h6v2h-6V258z M217.2,258h6v2h-6V258z M229.2,258h6v2h-6V258z M241.1,258
	h6v2h-6V258z M253.1,258h6v2h-6V258z M265,258h6v2h-6V258z M277,258h6v2h-6V258z M288.9,258h6v2h-6V258z M300.9,258h6v2h-6V258z
	 M312.8,258h6v2h-6V258z M324.8,258h6v2h-6V258z M336.7,258h6v2h-6V258z M348.7,258h6v2h-6V258z M360.6,258h6v2h-6V258z M372.6,258
	h6v2h-6V258z M384.5,258h3v2h-3V258z"/>
<path class="st0" d="M177,257.5c0,0.6-0.4,1-1,1c-0.6,0-1-0.4-1-1H177z M175,254.5c0-0.6,0.4-1,1-1c0.6,0,1,0.4,1,1H175z M177,248.5
	c0,0.6-0.4,1-1,1c-0.6,0-1-0.4-1-1H177z M175,242.6c0-0.6,0.4-1,1-1c0.6,0,1,0.4,1,1H175z M177,236.6c0,0.6-0.4,1-1,1
	c-0.6,0-1-0.4-1-1H177z M175,230.6c0-0.6,0.4-1,1-1c0.6,0,1,0.4,1,1H175z M177,224.6c0,0.6-0.4,1-1,1c-0.6,0-1-0.4-1-1H177z
	 M175,218.6c0-0.6,0.4-1,1-1c0.6,0,1,0.4,1,1H175z M177,212.7c0,0.6-0.4,1-1,1c-0.6,0-1-0.4-1-1H177z M175,206.7c0-0.6,0.4-1,1-1
	c0.6,0,1,0.4,1,1H175z M177,200.7c0,0.6-0.4,1-1,1c-0.6,0-1-0.4-1-1H177z M175,194.7c0-0.6,0.4-1,1-1c0.6,0,1,0.4,1,1H175z
	 M177,188.8c0,0.6-0.4,1-1,1c-0.6,0-1-0.4-1-1H177z M175,182.8c0-0.6,0.4-1,1-1c0.6,0,1,0.4,1,1H175z M177,176.8c0,0.6-0.4,1-1,1
	c-0.6,0-1-0.4-1-1H177z M175,170.8c0-0.6,0.4-1,1-1c0.6,0,1,0.4,1,1H175z M177,164.9c0,0.6-0.4,1-1,1c-0.6,0-1-0.4-1-1H177z
	 M175,158.9c0-0.6,0.4-1,1-1c0.6,0,1,0.4,1,1H175z M177,152.9c0,0.6-0.4,1-1,1c-0.6,0-1-0.4-1-1H177z M175,146.9c0-0.6,0.4-1,1-1
	c0.6,0,1,0.4,1,1H175z M177,140.9c0,0.6-0.4,1-1,1c-0.6,0-1-0.4-1-1H177z M175,135c0-0.6,0.4-1,1-1c0.6,0,1,0.4,1,1H175z M177,129
	c0,0.6-0.4,1-1,1c-0.6,0-1-0.4-1-1H177z M175,123c0-0.6,0.4-1,1-1c0.6,0,1,0.4,1,1H175z M177,117c0,0.6-0.4,1-1,1c-0.6,0-1-0.4-1-1
	H177z M175,111.1c0-0.6,0.4-1,1-1c0.6,0,1,0.4,1,1H175z M177,105.1c0,0.6-0.4,1-1,1c-0.6,0-1-0.4-1-1H177z M175,99.1
	c0-0.6,0.4-1,1-1c0.6,0,1,0.4,1,1H175z M177,93.1c0,0.6-0.4,1-1,1c-0.6,0-1-0.4-1-1H177z M175,87.2c0-0.6,0.4-1,1-1c0.6,0,1,0.4,1,1
	H175z M177,81.2c0,0.6-0.4,1-1,1c-0.6,0-1-0.4-1-1H177z M175,75.2c0-0.6,0.4-1,1-1c0.6,0,1,0.4,1,1H175z M177,69.2c0,0.6-0.4,1-1,1
	c-0.6,0-1-0.4-1-1H177z M175,63.3c0-0.6,0.4-1,1-1c0.6,0,1,0.4,1,1H175z M177,57.3c0,0.6-0.4,1-1,1c-0.6,0-1-0.4-1-1H177z M175,51.3
	c0-0.6,0.4-1,1-1c0.6,0,1,0.4,1,1H175z M177,45.3c0,0.6-0.4,1-1,1c-0.6,0-1-0.4-1-1H177z M175,39.3c0-0.6,0.4-1,1-1c0.6,0,1,0.4,1,1
	H175z M177,33.4c0,0.6-0.4,1-1,1c-0.6,0-1-0.4-1-1H177z M175,27.4c0-0.6,0.4-1,1-1c0.6,0,1,0.4,1,1H175z M177,21.4c0,0.6-0.4,1-1,1
	c-0.6,0-1-0.4-1-1H177z M175,15.4c0-0.6,0.4-1,1-1c0.6,0,1,0.4,1,1H175z M177,9.5c0,0.6-0.4,1-1,1c-0.6,0-1-0.4-1-1L177,9.5z
	 M175,3.5c0-0.6,0.4-1,1-1c0.6,0,1,0.4,1,1L175,3.5z M175,257.5v-3h2v3H175z M175,248.5v-6h2v6H175z M175,236.6v-6h2v6H175z
	 M175,224.6v-6h2v6H175z M175,212.7v-6h2v6H175z M175,200.7v-6h2v6H175z M175,188.8v-6h2v6H175z M175,176.8v-6h2v6H175z M175,164.9
	v-6h2v6H175z M175,152.9v-6h2v6H175z M175,140.9v-6h2v6H175z M175,129v-6h2v6H175z M175,117v-6h2v6H175z M175,105.1v-6h2v6H175z
	 M175,93.1v-6h2v6H175z M175,81.2v-6h2v6H175z M175,69.2v-6h2v6H175z M175,57.3v-6h2v6H175z M175,45.3l0-6h2l0,6H175z M175,33.4v-6
	h2v6H175z M175,21.4v-6h2v6H175z M175,9.5v-6l2,0v6L175,9.5z"/>
<path class="st1" d="M181,259L181,259c0-2.8-2.3-5-5-5l0,0c-2.8,0-5,2.3-5,5l0,0c0,2.8,2.3,5,5,5l0,0C178.8,264,181,261.8,181,259z"
	/>
</svg>
