<?xml version="1.0" encoding="utf-8"?>
<!-- Generator: Adobe Illustrator 26.4.1, SVG Export Plug-In . SVG Version: 6.00 Build 0)  -->
<svg version="1.1" id="Layer_1" xmlns="http://www.w3.org/2000/svg" xmlns:xlink="http://www.w3.org/1999/xlink" x="0px" y="0px"
	 viewBox="0 0 2065.7 1999.4" style="enable-background:new 0 0 2065.7 1999.4;" xml:space="preserve">
<style type="text/css">
	.st0{fill:#B5B7A5;}
	.st1{fill:#FFFFFF;}
</style>
<g>
	<path class="st0" d="M1361.5,1259.9c-91.3,36.6-184.6,66.6-281.1,86.8c-70.2,14.7-140.6,26.8-212.8,25.5
		c-37.2-0.7-66.9-14.5-91.1-42.5c-22.4-25.9-39.7-55-54.9-85.5c-44.4-89-74.1-183.3-100.4-278.7C601,892.2,584.4,818,573.1,742.7
		c-0.3-1.7-0.4-3.3-0.5-4.9l-6.6-40.5c0.2,17-6.3,28.7-24.2,37.3c-15.1,7.2-28.4,18.4-42.3,28.2c-35.3,24.8-54,57.5-49.4,102
		c2.3,22.7,1.5,45.8,4.2,68.4c13.5,114,39.8,225.3,73.9,334.6c28,89.6,59.7,177.7,110,258c28.3,45.3,65.6,70.9,120.9,64.9
		c13.2-1.4,26.6-0.6,39.8-2c159.8-17.4,313.2-58.5,459.7-124.7c39.7-18,78-38.9,109.1-70.6c14.5-14.8,23.7-32.1,23.4-53.2
		c-0.3-21.4-1.7-42.8-2.6-64.2C1387.8,1256.7,1380.3,1252.4,1361.5,1259.9z"/>
	<path class="st0" d="M792.4,1272c27.5,46.4,65.3,61.7,117,55.4c48.4-5.9,96.7-11.5,144.4-21.7c100.6-21.5,198.9-50.2,293.5-91
		c32.6-14.1,33.4-14.7,30-49.4c-10.3-105.8-23.2-211.3-45.6-315.3c-15.1-70.1-33.7-139.2-71.4-201.5c-22.6-37.4-54.6-57.7-99.1-61
		c-109.8-7.9-216.3,11.7-322.3,36c-67,15.4-132.5,36-196.2,62c-12.8,5.2-21.1,4.7-25-3.5l5.5,62.5c15.3,94.4,37.1,187.3,65.5,278.7
		C715.5,1109.3,746,1193.7,792.4,1272z"/>
</g>
<path class="st1" d="M1541.2,1062.1c-13.9-125.4-22-251.5-43.9-375.9c-15.7-89.5-34.8-178.1-73-261.6
	c-31.6-69.1-83-105.5-160.1-102.7c-5.2,0.2-10.3-0.2-15.5-0.1c-183.5,3.5-358,46.4-525.1,121c-50.8,22.7-98.2,51.1-136.6,92.7
	c-13.1,14.2-19.7,30.4-22.9,49.2c-4.2,24.3-4.1,48.6-2.1,72.7l11.4,70c2.9-12,12.4-19.8,27.4-22c9.8-1.4,14.5,1.8,16.9,6.8
	l-3.3-37.9l1.2-0.1c-0.2-1.6-0.4-3.2-0.4-5c-0.6-20.6-1.5-41.3-2.1-61.9c-0.5-21.3,8.2-38,23.8-52.6c24.6-22.9,52.2-41.3,82-56.1
	c158.4-78.7,327.1-117.5,472.2-128.2c138-4.8,164,11.8,200.7,108.1c26.9,70.7,42.3,144.4,55,218.7c20.7,121.7,29.9,244.6,42.2,367.3
	c4.4,43.7-8.2,73-43.3,95.3c-16.8,10.7-34,20.8-50.8,31.5c-11.3,7.2-16.6,31.7-8.9,43.8c10.1,15.7,21.1,3.5,30.5-1.1
	c21.9-10.7,42.4-23.9,62.5-37.8C1526.3,1163.4,1547.8,1121.9,1541.2,1062.1z"/>
</svg>
